<svg width="119" height="118" viewBox="0 0 119 118" fill="none" xmlns="http://www.w3.org/2000/svg">
<path d="M21.9769 15.0715C21.5528 14.576 20.8064 14.5173 20.3194 14.9512C10.188 23.9791 3.46852 36.2342 1.31581 49.657C-0.899303 63.4688 1.865 77.6184 9.11546 89.581C16.3659 101.544 27.6309 110.541 40.9003 114.968C54.1697 119.394 68.5803 118.962 81.5607 113.749C94.5412 108.536 105.247 98.8797 111.768 86.5044C118.289 74.129 120.201 59.8393 117.163 46.1849C114.125 32.5306 106.334 20.3999 95.1804 11.9573C84.3412 3.75262 71.0117 -0.450049 57.4503 0.0380088C56.7985 0.0614655 56.3001 0.620174 56.3365 1.27135V1.27135C56.373 1.92253 56.9306 2.41955 57.5824 2.39663C70.5847 1.93955 83.3622 5.97375 93.7549 13.8405C104.462 21.9451 111.941 33.5902 114.857 46.6979C117.774 59.8057 115.939 73.5234 109.679 85.4033C103.419 97.2833 93.1413 106.553 80.6805 111.557C68.2196 116.562 54.3859 116.977 41.6477 112.727C28.9095 108.478 18.0955 99.8405 11.1353 88.3568C4.17504 76.873 1.5214 63.2899 3.64784 50.031C5.71187 37.1611 12.1492 25.4095 21.8555 16.7459C22.3421 16.3116 22.4009 15.567 21.9769 15.0715V15.0715Z" fill="#0D3480"/>
<path d="M59.5714 47.9999C59.911 47.9995 60.2427 47.8984 60.5232 47.7098C64.6792 44.9311 66.4788 43.0259 67.4714 41.8348C69.5866 39.2957 70.5993 36.6889 70.5708 33.866C70.5375 30.6311 67.9024 27.9999 64.6967 27.9999C62.3656 27.9999 60.7512 29.2931 59.8109 30.3702C59.7811 30.404 59.7443 30.431 59.703 30.4496C59.6617 30.4682 59.6168 30.4778 59.5714 30.4778C59.5259 30.4778 59.481 30.4682 59.4397 30.4496C59.3984 30.431 59.3616 30.404 59.3318 30.3702C58.3916 29.2921 56.7771 27.9999 54.4461 27.9999C51.2404 27.9999 48.6053 30.6311 48.572 33.8665C48.5434 36.69 49.5571 39.2968 51.6714 41.8353C52.6639 43.0264 54.4635 44.9316 58.6195 47.7103C58.9001 47.8987 59.2318 47.9996 59.5714 47.9999Z" fill="#0D3480"/>
</svg>
