<svg width="118" height="118" viewBox="0 0 118 118" fill="none" xmlns="http://www.w3.org/2000/svg">
<path d="M46.8125 2.47962C46.675 1.84207 46.0462 1.43554 45.4115 1.58574C31.0489 4.98468 18.4653 13.6495 10.1664 25.8893C1.64637 38.4552 -1.70176 53.8219 0.818376 68.7934C3.33852 83.7648 11.5329 97.1885 23.6974 106.273C35.8618 115.357 51.0598 119.402 66.1306 117.567C81.2014 115.732 94.9847 108.158 104.614 96.4208C114.243 84.6832 118.977 69.6854 117.832 54.5467C116.686 39.4079 109.748 25.2936 98.4619 15.1391C87.4685 5.24821 73.1735 -0.144093 58.4148 0.00255168C57.7627 0.00903178 57.2497 0.554575 57.2693 1.20649V1.20649C57.2888 1.85839 57.8333 2.36975 58.4855 2.36382C72.6366 2.235 86.3406 7.41049 96.8821 16.8949C107.717 26.6429 114.376 40.1922 115.476 54.725C116.576 69.2577 112.032 83.6551 102.788 94.9228C93.5442 106.191 80.3126 113.461 65.8451 115.223C51.3777 116.984 36.788 113.101 25.1106 104.38C13.4331 95.6598 5.5667 82.7734 3.14744 68.4013C0.728184 54.0292 3.94229 39.2777 12.1213 27.2147C20.0791 15.478 32.1409 7.16545 45.9095 3.89498C46.5441 3.74425 46.95 3.11717 46.8125 2.47962V2.47962Z" fill="#0D3480"/>
<path d="M59 27.9999L61.9187 36.9827H71.3637L63.7225 42.5343L66.6412 51.5171L59 45.9654L51.3588 51.5171L54.2775 42.5343L46.6363 36.9827H56.0813L59 27.9999Z" fill="#0D3480"/>
</svg>
