<svg width="21" height="21" viewBox="0 0 21 21" fill="none" xmlns="http://www.w3.org/2000/svg">
<path d="M20.6816 18.4549C20.7745 18.5479 20.8482 18.6582 20.8985 18.7796C20.9487 18.9009 20.9746 19.0311 20.9746 19.1624C20.9746 19.2938 20.9487 19.424 20.8985 19.5453C20.8482 19.6667 20.7745 19.777 20.6816 19.8699C20.5887 19.9629 20.4784 20.0366 20.357 20.0868C20.2356 20.1371 20.1055 20.163 19.9741 20.163C19.8427 20.163 19.7126 20.1371 19.5912 20.0868C19.4698 20.0366 19.3595 19.9629 19.2666 19.8699L10.9741 11.5762L2.68157 19.8699C2.49393 20.0576 2.23943 20.163 1.97407 20.163C1.7087 20.163 1.45421 20.0576 1.26657 19.8699C1.07893 19.6823 0.973511 19.4278 0.973511 19.1624C0.973511 18.8971 1.07893 18.6426 1.26657 18.4549L9.56032 10.1624L1.26657 1.86995C1.07893 1.68231 0.973511 1.42781 0.973511 1.16245C0.973511 0.897084 1.07893 0.642589 1.26657 0.454948C1.45421 0.267307 1.7087 0.161892 1.97407 0.161892C2.23943 0.161892 2.49393 0.267307 2.68157 0.454948L10.9741 8.7487L19.2666 0.454948C19.4542 0.267307 19.7087 0.161892 19.9741 0.161892C20.2394 0.161892 20.4939 0.267307 20.6816 0.454948C20.8692 0.642589 20.9746 0.897084 20.9746 1.16245C20.9746 1.42781 20.8692 1.68231 20.6816 1.86995L12.3878 10.1624L20.6816 18.4549Z" fill="white"/>
</svg>
