<svg width="33" height="33" viewBox="0 0 33 33" fill="none" xmlns="http://www.w3.org/2000/svg">
<path d="M28.5963 16.821C28.5963 17.0862 28.491 17.3406 28.3034 17.5281C28.1159 17.7157 27.8615 17.821 27.5963 17.821H5.59631C5.3311 17.821 5.07674 17.7157 4.88921 17.5281C4.70167 17.3406 4.59631 17.0862 4.59631 16.821C4.59631 16.5558 4.70167 16.3014 4.88921 16.1139C5.07674 15.9264 5.3311 15.821 5.59631 15.821H27.5963C27.8615 15.821 28.1159 15.9264 28.3034 16.1139C28.491 16.3014 28.5963 16.5558 28.5963 16.821ZM5.59631 9.82101H27.5963C27.8615 9.82101 28.1159 9.71565 28.3034 9.52811C28.491 9.34058 28.5963 9.08622 28.5963 8.82101C28.5963 8.55579 28.491 8.30144 28.3034 8.1139C28.1159 7.92636 27.8615 7.82101 27.5963 7.82101H5.59631C5.3311 7.82101 5.07674 7.92636 4.88921 8.1139C4.70167 8.30144 4.59631 8.55579 4.59631 8.82101C4.59631 9.08622 4.70167 9.34058 4.88921 9.52811C5.07674 9.71565 5.3311 9.82101 5.59631 9.82101ZM27.5963 23.821H5.59631C5.3311 23.821 5.07674 23.9264 4.88921 24.1139C4.70167 24.3014 4.59631 24.5558 4.59631 24.821C4.59631 25.0862 4.70167 25.3406 4.88921 25.5281C5.07674 25.7157 5.3311 25.821 5.59631 25.821H27.5963C27.8615 25.821 28.1159 25.7157 28.3034 25.5281C28.491 25.3406 28.5963 25.0862 28.5963 24.821C28.5963 24.5558 28.491 24.3014 28.3034 24.1139C28.1159 23.9264 27.8615 23.821 27.5963 23.821Z" fill="white"/>
</svg>
