<svg width="28" height="35" viewBox="0 0 28 35" fill="none" xmlns="http://www.w3.org/2000/svg">
<path d="M0 16C0 13.7909 1.79086 12 4 12H24C26.2091 12 28 13.7909 28 16V31C28 33.2091 26.2091 35 24 35H4C1.79086 35 0 33.2091 0 31V16Z" fill="#0D3480"/>
<path fill-rule="evenodd" clip-rule="evenodd" d="M19 11V8C19 5.23858 16.7614 3 14 3C11.2386 3 9 5.23858 9 8V11C9 13.7614 11.2386 16 14 16C16.7614 16 19 13.7614 19 11ZM14 0C9.58172 0 6 3.58172 6 8V11C6 15.4183 9.58172 19 14 19C18.4183 19 22 15.4183 22 11V8C22 3.58172 18.4183 0 14 0Z" fill="#0D3480"/>
<path d="M17 22C17 23.6569 15.6569 25 14 25C12.3431 25 11 23.6569 11 22C11 20.3431 12.3431 19 14 19C15.6569 19 17 20.3431 17 22Z" fill="white"/>
<path d="M12.2209 27.0122L12.5194 24.3252C12.6032 23.5708 13.2409 23 14 23C14.7591 23 15.3968 23.5708 15.4806 24.3252L15.7791 27.0122C15.897 28.0726 15.0669 29 14 29C12.9331 29 12.103 28.0726 12.2209 27.0122Z" fill="white"/>
</svg>
