<svg width="274" height="27" viewBox="0 0 274 27" fill="none" xmlns="http://www.w3.org/2000/svg">
<g clip-path="url(#clip0_156_501)">
<path d="M13.5156 2.98972L14.4084 0.5961H15.2266L15.5657 10.5558H14.6929C14.1232 7.75628 13.4072 5.6916 12.5447 4.36181C10.4538 0.93296 6.64096 1.04251 4.79092 4.64664C3.78121 6.49922 3.27635 9.63351 3.27635 14.0495C3.45817 19.2959 4.01818 24.6492 9.15283 25.029C13.1474 24.8464 14.5657 21.4166 15.1202 17.2629H16.0393C14.4938 32.2345 -0.309175 27.4244 0.0144671 14.0002C-0.343722 6.46513 5.8864 -4.4495 13.5156 2.98972Z" fill="white"/>
<path d="M26.075 5.3158L22.6377 16.3464H29.3978L26.075 5.3158ZM26.4523 0.545898H27.3187L34.1843 23.1922C34.4961 24.3899 35.4316 24.6528 36.4761 24.5616V25.8195H28.8387V24.5643C29.9033 24.5278 31.4324 24.7177 31.4669 23.5099C31.6069 23.4186 29.8487 17.9211 29.7924 17.6509H22.2195C21.5431 20.3339 19.1531 24.8729 23.9323 24.5643V25.8195H16.994V24.5643C17.737 24.5643 18.3237 24.3549 18.754 23.9362C19.8304 23.5126 25.8259 1.92712 26.4523 0.545898Z" fill="white"/>
<path d="M37.3662 1.06165H52.912L53.2865 10.4189H52.3938C51.8053 4.91712 50.2659 2.16625 47.7755 2.16625C46.7337 2.17447 46.4828 2.59623 46.4655 3.60681V23.3893C46.4655 23.791 46.5564 24.0877 46.7382 24.2767C47.1346 24.7879 48.981 24.4793 49.5564 24.5615V25.8195H40.6672V24.5642C41.1781 24.4264 43.2127 24.8381 43.5409 24.2794C43.7047 24.0639 43.7871 23.7971 43.7736 23.5263V3.45801C43.7682 2.60353 43.3945 2.16717 42.5181 2.16899C38.9781 2.59258 38.4726 6.48153 37.8971 10.4216H36.9517L37.3662 1.06165Z" fill="white"/>
<path d="M55.4847 1.06165H70.6578L71.0214 9.41378H70.1541C69.4941 5.5513 69.0887 2.61906 65.6086 2.31688H61.8521C61.1249 2.33606 60.943 2.87558 60.9339 3.60681V12.4273H62.5703C64.9786 12.2447 65.4795 10.0126 65.5904 7.45652H66.4841V18.9235H65.594C65.4695 15.0592 64.5877 13.2635 60.9339 13.6177C61.0558 14.0659 60.6303 24.2283 61.2121 24.2795C61.6549 24.8208 64.4577 24.4684 65.0968 24.5643C68.3089 24.5643 70.1617 21.9087 70.655 16.5974H71.5878L71.2641 25.8177H55.4847V24.5643C56.0884 24.5104 57.4993 24.7323 57.8666 24.2201C58.0739 23.9925 58.1775 23.6608 58.1775 23.2251V3.60955C58.2966 1.93255 56.5539 2.36801 55.4847 2.31962V1.06165Z" fill="white"/>
<path d="M79.7397 13.6853C79.857 14.2449 79.427 24.1124 80.0443 24.2293C80.4988 24.8154 82.7716 24.4794 83.4553 24.5643C84.991 24.5643 86.1256 24.1261 86.859 23.2497C88.3208 21.6649 88.3454 16.8594 86.8199 15.1496C85.5362 13.0727 81.7816 13.8067 79.7397 13.6853ZM79.7397 12.43C81.5352 12.2922 84.8771 13.0143 86.0244 11.1593C87.2972 9.45852 87.7635 3.97837 85.1698 2.74595C84.6035 2.31506 80.9152 2.03389 80.1152 2.5798C79.3343 2.76147 79.9034 11.8065 79.7397 12.43ZM74.0214 1.06165C77.1724 1.45237 86.3262 -0.135168 88.4999 2.73408C91.4827 5.98493 90.079 11.4979 85.698 12.8335C90.3536 13.8222 92.4018 18.3383 90.3345 22.419C89.1399 24.5817 86.3189 25.867 83.698 25.8196H74.0214V24.5643C74.6478 24.4922 76.2097 24.7524 76.6433 24.2621C76.7445 24.1787 76.8265 24.0742 76.8835 23.9558C76.9405 23.8374 76.9711 23.708 76.9733 23.5765V3.74375C77.0769 1.93438 75.1896 2.35705 74.0214 2.31963V1.06165Z" fill="white"/>
<path d="M107.894 5.3158L104.457 16.3464H111.217L107.894 5.3158ZM108.271 0.545898H109.138L116.003 23.1922C116.315 24.3899 117.251 24.6528 118.295 24.5616V25.8195H110.659V24.5643C111.723 24.5278 113.252 24.7177 113.287 23.5099C113.427 23.4186 111.669 17.9211 111.612 17.6509H104.04C103.364 20.3339 100.974 24.8729 105.753 24.5643V25.8195H98.813V24.5643C99.5555 24.5643 100.142 24.3549 100.573 23.9362C101.649 23.5117 107.645 1.9262 108.271 0.545898Z" fill="white"/>
<path d="M125.864 2.31971C125.046 2.31971 124.728 2.78529 124.724 3.59139V23.342C124.61 24.9688 126.741 24.4978 127.78 24.5644C133.362 24.3426 133.996 19.0231 134.006 13.8186C133.866 6.78381 132.998 1.50084 125.864 2.31971ZM118.925 1.06173C121.663 1.37669 130.323 0.240122 132.556 2.06593C135.766 4.34818 137.185 8.93734 137.151 13.3129C137.131 18.1157 136.016 23.2453 131.404 25.2472C129.325 26.298 121.361 25.6398 118.925 25.816V24.5644C119.934 24.4548 122.101 25.061 121.954 23.3922V3.4581C121.97 3.15555 121.868 2.85881 121.67 2.6301C121.281 2.06593 119.488 2.41192 118.925 2.31971V1.06173Z" fill="white"/>
<path d="M138.391 1.06165H146.456V2.31962C145.527 2.39448 143.54 1.95446 143.569 3.30738C143.501 3.83322 148.751 20.3786 148.948 21.2669L153.402 5.43262C153.496 5.06062 153.539 4.67777 153.531 4.29423C153.522 2.24477 152.241 2.24933 150.646 2.31962V1.06165H157.712V2.31962C156.966 2.27672 156.451 2.34427 155.854 3.10563C154.776 3.8606 149.415 24.798 148.777 26.4056H147.841C147.442 25.6881 140.972 2.57889 140.266 2.74595C139.861 2.30593 139.015 2.2968 138.393 2.31962L138.391 1.06165Z" fill="white"/>
<path d="M167.875 1.83497C160.477 2.06594 161.528 18.4982 163.823 22.5724C165.439 25.3221 168.499 25.9502 170.709 23.9619C173.102 21.414 173.375 17.8737 173.454 13.7018C173.341 8.68082 173.12 2.35624 167.875 1.83406M167.668 0.545044C176.448 1.02432 178.324 13.3877 175.511 20.1277C172.281 28.3812 163.367 28.572 160.18 20.1368C157.396 13.5128 159.14 1.26715 167.668 0.545044Z" fill="white"/>
<path d="M192.909 3.01982L193.969 0.54586H194.836L195.314 10.4216H194.473C193.502 5.19344 190.268 -0.85727 185.345 3.05543C182.799 5.806 182.734 9.04224 182.618 13.5931C182.72 17.9604 182.84 21.2541 185.269 23.8878C187.018 25.6132 190.311 25.3439 191.674 23.393C193.002 21.8858 192.961 18.939 192.909 16.832C192.988 15.2801 190.875 15.7457 189.88 15.6763V14.505H197.906V15.6763C197.341 15.6991 196.127 15.5549 195.782 16.0022C195.156 16.0104 195.594 25.9391 195.472 26.4093H194.618C194.307 24.9359 193.983 23.5242 193.647 22.1743C191.84 26.5563 187.41 27.5185 183.816 24.6848C180.663 22.1807 179.348 17.818 179.357 13.5547C178.801 6.21042 185.971 -4.32447 192.909 3.01982Z" fill="white"/>
<path d="M207.381 5.3158L203.945 16.3464H210.705L207.381 5.3158ZM207.759 0.545898H208.626L215.491 23.1922C215.803 24.3899 216.739 24.6528 217.782 24.5616V25.8195H210.146V24.5643C211.21 24.5278 212.739 24.7177 212.773 23.5099C212.913 23.4186 211.155 17.9211 211.099 17.6509H203.527C202.85 20.3339 200.46 24.8729 205.239 24.5643V25.8195H198.301V24.5643C199.043 24.5643 199.63 24.3549 200.061 23.9362C201.136 23.5117 207.133 1.9262 207.759 0.545898Z" fill="white"/>
<path d="M225.352 2.31971C224.534 2.31971 224.217 2.78529 224.213 3.59139V23.342C224.213 23.7437 224.321 24.048 224.537 24.2549C224.956 24.7488 226.635 24.5087 227.264 24.5644C228.679 24.5806 230.048 24.0588 231.096 23.1038C233.401 20.6389 233.337 17.8783 233.49 13.815C233.355 6.7838 232.487 1.50084 225.352 2.31971ZM218.414 1.06173C221.152 1.37669 229.811 0.240122 232.045 2.06593C235.254 4.34818 236.672 8.93734 236.64 13.3129C236.619 18.1157 235.505 23.2453 230.892 25.2472C228.814 26.298 220.848 25.6398 218.414 25.816V24.5644C219.423 24.4548 221.589 25.061 221.443 23.3922V3.4581C221.458 3.15542 221.356 2.85867 221.157 2.6301C220.769 2.06593 218.98 2.41192 218.414 2.31971V1.06173Z" fill="white"/>
<path d="M248.351 1.83497C240.952 2.06594 242.004 18.4982 244.297 22.5724C245.914 25.3221 248.974 25.9502 251.184 23.9619C253.576 21.414 253.849 17.8737 253.928 13.7018C253.815 8.68082 253.595 2.35624 248.349 1.83406M248.142 0.545044C256.921 1.02432 258.798 13.3877 255.986 20.1277C252.756 28.3812 243.84 28.572 240.654 20.1368C237.871 13.5128 239.614 1.26715 248.142 0.545044Z" fill="white"/>
<path d="M270.742 2.93957L271.906 0.779648H272.852L272.929 9.80185H272.074C271.165 5.61894 269.95 2.15539 266.082 1.83405C263.682 1.79936 262.158 4.07066 262.199 6.39216C262.061 11.613 268.568 10.6828 271.434 12.9486C273.28 14.2769 273.98 16.2068 273.99 18.5383C274.29 25.2938 267.297 29.128 262.6 23.8112L261.137 26.12H260.207V16.5345H261.139C261.694 20.7001 263.789 24.9049 267.832 25.0875C270.493 25.1331 272.212 22.6345 272.167 20.0665C272.161 18.5036 271.613 17.3032 270.278 16.477C268.96 15.5842 263.044 14.265 262.083 12.819C259.788 10.5641 260.065 5.01368 262.078 2.63466C264.332 -0.39708 268.475 0.0602827 270.743 2.94414" fill="white"/>
</g>
<defs>
<clipPath id="clip0_156_501">
<rect width="274" height="25.9921" fill="white" transform="translate(0 0.503906)"/>
</clipPath>
</defs>
</svg>
