<svg width="545" height="545" viewBox="0 0 545 545" fill="none" xmlns="http://www.w3.org/2000/svg">
<circle cx="272.5" cy="272.5" r="272.5" fill="url(#paint0_radial_266_558)"/>
<path fill-rule="evenodd" clip-rule="evenodd" d="M93.4041 188.271H52C82.6837 130.431 143.803 91 214.193 91C234.577 91 254.184 94.3069 272.5 100.41C290.816 94.3069 310.423 91 330.807 91C401.197 91 462.316 130.431 493 188.271H451.596C425.079 149.812 381.004 124.647 331.114 124.647C327.665 124.647 324.244 124.767 320.854 125.004C367.209 158.029 397.409 212.011 397.409 273C397.409 333.989 367.209 387.971 320.854 420.996C324.244 421.233 327.665 421.353 331.114 421.353C380.473 421.353 424.14 396.721 450.743 358.953H492.345C461.452 416.124 400.7 455 330.807 455C310.423 455 290.816 451.693 272.5 445.59C254.184 451.693 234.577 455 214.193 455C144.3 455 83.5481 416.124 52.6551 358.953H94.2568C120.86 396.721 164.527 421.353 213.886 421.353C217.335 421.353 220.756 421.233 224.146 420.996C177.791 387.971 147.591 333.989 147.591 273C147.591 212.011 177.791 158.029 224.146 125.004C220.756 124.767 217.335 124.647 213.886 124.647C163.996 124.647 119.921 149.812 93.4041 188.271ZM272.5 136.952C220.621 159.824 184.357 212.131 184.357 273C184.357 333.869 220.621 386.176 272.5 409.048C324.379 386.176 360.643 333.869 360.643 273C360.643 212.131 324.379 159.824 272.5 136.952Z" fill="#FFFDF7"/>
<defs>
<radialGradient id="paint0_radial_266_558" cx="0" cy="0" r="1" gradientUnits="userSpaceOnUse" gradientTransform="translate(173.861 654.105) rotate(-57.7367) scale(450.658 2093.34)">
<stop stop-color="#051432"/>
<stop offset="1"/>
</radialGradient>
</defs>
</svg>
