<svg width="441" height="364" viewBox="0 0 441 364" fill="none" xmlns="http://www.w3.org/2000/svg">
<path fill-rule="evenodd" clip-rule="evenodd" d="M41.4041 97.2706H0C30.6837 39.4313 91.8026 0 162.193 0C182.577 0 202.184 3.3069 220.5 9.41021C238.816 3.3069 258.423 0 278.807 0C349.197 0 410.316 39.4313 441 97.2706H399.596C373.079 58.8123 329.004 33.6471 279.114 33.6471C275.665 33.6471 272.244 33.7673 268.854 34.0039C315.209 67.0287 345.409 121.011 345.409 182C345.409 242.989 315.209 296.971 268.854 329.996C272.244 330.233 275.665 330.353 279.114 330.353C328.473 330.353 372.14 305.721 398.743 267.953H440.345C409.452 325.124 348.7 364 278.807 364C258.423 364 238.816 360.693 220.5 354.59C202.184 360.693 182.577 364 162.193 364C92.3 364 31.5481 325.124 0.655101 267.953H42.2568C68.8597 305.721 112.527 330.353 161.886 330.353C165.335 330.353 168.756 330.233 172.146 329.996C125.791 296.971 95.591 242.989 95.591 182C95.591 121.011 125.791 67.0287 172.146 34.0039C168.756 33.7673 165.335 33.6471 161.886 33.6471C111.996 33.6471 67.9208 58.8123 41.4041 97.2706ZM220.5 45.952C168.621 68.824 132.357 121.131 132.357 182C132.357 242.869 168.621 295.176 220.5 318.048C272.379 295.176 308.643 242.869 308.643 182C308.643 121.131 272.379 68.824 220.5 45.952Z" fill="#FFFDF7"/>
</svg>
